<svg xmlns="http://www.w3.org/2000/svg" viewBox="0 0 100 100">
  <defs>
    <linearGradient id="grad" x1="0%" y1="0%" x2="100%" y2="100%">
      <stop offset="0%" stop-color="#7c6aff" />
      <stop offset="100%" stop-color="#a78bfa" />
    </linearGradient>
    <linearGradient id="bg" x1="0%" y1="0%" x2="100%" y2="100%">
      <stop offset="0%" stop-color="#1c1f33" />
      <stop offset="100%" stop-color="#0a0b10" />
    </linearGradient>
  </defs>
  
  <!-- App Icon Background -->
  <rect width="100" height="100" rx="24" fill="url(#bg)" stroke="#7c6aff" stroke-width="2" stroke-opacity="0.3" />
  
  <!-- Chat bubble (Text) -->
  <path d="M 20 35 C 20 20 30 15 50 15 C 70 15 80 20 80 35 L 80 60 C 80 75 70 80 50 80 C 42 80 30 88 30 88 L 30 80 C 24 80 20 75 20 60 Z" fill="url(#grad)" />
  
  <!-- AI Sparkle 1 (AI) -->
  <path d="M 50 30 Q 50 47.5 32.5 47.5 Q 50 47.5 50 65 Q 50 47.5 67.5 47.5 Q 50 47.5 50 30" fill="#ffffff" />
  
  <!-- AI Sparkle 2 -->
  <path d="M 68 22 Q 68 30 60 30 Q 68 30 68 38 Q 68 30 76 30 Q 68 30 68 22" fill="#ffffff" />
</svg>
